<svg xmlns="http://www.w3.org/2000/svg" viewBox="0 0 600.49 141.26"><defs><style>.cls-1{fill:#fff;}.cls-2{fill:#274193;}</style></defs><g id="Layer_2" data-name="Layer 2"><g id="Layer_1-2" data-name="Layer 1"><rect class="cls-1" x="140.51" y="102.38" width="459.76" height="4.83"></rect><path class="cls-1" d="M140.15,124.13a.45.45,0,0,1,.42-.43h2.08a.42.42,0,0,1,.42.43v6h6.4v-6a.43.43,0,0,1,.42-.43H152a.45.45,0,0,1,.42.43v15a.44.44,0,0,1-.42.43h-2.06a.42.42,0,0,1-.42-.43v-6.23h-6.4v6.23a.42.42,0,0,1-.42.43h-2.08a.44.44,0,0,1-.42-.43Z"></path><path class="cls-1" d="M164.89,123.55a8,8,0,1,1-8,8.06A8,8,0,0,1,164.89,123.55Zm0,13.18a5.14,5.14,0,1,0-5.13-5.12A5.15,5.15,0,0,0,164.89,136.73Z"></path><path class="cls-1" d="M177.43,124.1a.41.41,0,0,1,.43-.4h.55l8.86,9.66h0v-9.23a.43.43,0,0,1,.42-.43h2.06a.45.45,0,0,1,.42.43v15a.42.42,0,0,1-.42.4h-.54l-8.89-9.74h0v9.32a.42.42,0,0,1-.42.42h-2a.44.44,0,0,1-.43-.42Z"></path><path class="cls-1" d="M215.28,124.13a.43.43,0,0,1,.42-.43h7.46a4.85,4.85,0,0,1,4.83,4.86,5,5,0,0,1-3.28,4.61l3.25,5.68a.43.43,0,0,1-.38.66h-2.32a.4.4,0,0,1-.36-.21l-3.16-5.93h-3.58v5.71a.45.45,0,0,1-.42.43h-2a.43.43,0,0,1-.42-.43Zm7.63,6.74a2.23,2.23,0,0,0,0-4.46h-4.73v4.46Z"></path><path class="cls-1" d="M237.44,124.58a.45.45,0,0,1,.44-.43H240a.45.45,0,0,1,.44.43v14a.45.45,0,0,1-.44.43h-2.15a.45.45,0,0,1-.44-.43Z"></path><path class="cls-1" d="M244.64,137.05a.36.36,0,0,1,.33.35v1.76a.35.35,0,0,1-.33.34H233.26a.34.34,0,0,1-.32-.34V137.4a.35.35,0,0,1,.32-.35Z"></path><path class="cls-1" d="M243.75,123.71a.35.35,0,0,1,.33.34v1.75a.36.36,0,0,1-.33.35h-9.59a.35.35,0,0,1-.33-.35v-1.75a.34.34,0,0,1,.33-.34Z"></path><path class="cls-1" d="M288.7,124.34v-.42h5.44v.42h-.58a1.56,1.56,0,0,0-1.39.76,3.4,3.4,0,0,0-.24,1.63V133a10.93,10.93,0,0,1-.46,3.59,4.45,4.45,0,0,1-1.8,2.19,6.38,6.38,0,0,1-3.65.91,6.9,6.9,0,0,1-3.82-.87,4.72,4.72,0,0,1-1.85-2.35,13.06,13.06,0,0,1-.36-3.78v-6a3,3,0,0,0-.39-1.86,1.62,1.62,0,0,0-1.27-.44h-.58v-.42h6.64v.42h-.58a1.52,1.52,0,0,0-1.36.6,3.32,3.32,0,0,0-.29,1.7v6.7a14.83,14.83,0,0,0,.17,2,4.32,4.32,0,0,0,.59,1.8,3.28,3.28,0,0,0,1.24,1.07,4.3,4.3,0,0,0,2,.42,5.45,5.45,0,0,0,2.7-.66,3.56,3.56,0,0,0,1.63-1.68,9.87,9.87,0,0,0,.43-3.48v-6.22a3.26,3.26,0,0,0-.31-1.81,1.69,1.69,0,0,0-1.32-.49Z"></path><path class="cls-1" d="M298.16,123.92h4.17l9.39,11.53v-8.87a3.11,3.11,0,0,0-.31-1.77,1.72,1.72,0,0,0-1.33-.47h-.53v-.42h5.35v.42h-.55a1.54,1.54,0,0,0-1.38.59,3.37,3.37,0,0,0-.25,1.65v13h-.41l-10.13-12.38v9.47a3,3,0,0,0,.31,1.76,1.67,1.67,0,0,0,1.32.48h.55v.42H299v-.42h.53a1.57,1.57,0,0,0,1.39-.59,3.37,3.37,0,0,0,.25-1.65v-10.7a7.57,7.57,0,0,0-1-1,3.8,3.8,0,0,0-1-.46,3.52,3.52,0,0,0-1-.1Z"></path><path class="cls-1" d="M326.46,138.87v.42h-6.59v-.42h.55a1.67,1.67,0,0,0,1.38-.55,3.52,3.52,0,0,0,.27-1.75v-9.93a5,5,0,0,0-.15-1.54,1,1,0,0,0-.46-.49,2.15,2.15,0,0,0-1-.27h-.55v-.42h6.59v.42h-.56a1.64,1.64,0,0,0-1.37.55,3.35,3.35,0,0,0-.28,1.75v9.93a5,5,0,0,0,.15,1.54,1,1,0,0,0,.47.49,2.11,2.11,0,0,0,1,.27Z"></path><path class="cls-1" d="M344.53,123.92l.17,3.6h-.43a4.69,4.69,0,0,0-.34-1.36,2.32,2.32,0,0,0-.94-1,3.23,3.23,0,0,0-1.53-.31h-2.17v11.75a3,3,0,0,0,.31,1.76,1.68,1.68,0,0,0,1.32.48h.54v.42h-6.52v-.42h.54a1.56,1.56,0,0,0,1.38-.59,3.37,3.37,0,0,0,.25-1.65V124.88h-1.84a5,5,0,0,0-1.53.16,2,2,0,0,0-1,.83,3.26,3.26,0,0,0-.5,1.65h-.43l.18-3.6Z"></path><path class="cls-1" d="M354.2,124.76v6.07h3.37a2.79,2.79,0,0,0,1.76-.39,2.59,2.59,0,0,0,.66-1.84h.42V134H360a5.77,5.77,0,0,0-.32-1.44,1.45,1.45,0,0,0-.67-.62,3.44,3.44,0,0,0-1.43-.23H354.2v5.07a4.74,4.74,0,0,0,.09,1.24.74.74,0,0,0,.31.35,2,2,0,0,0,.86.13h2.61a7.21,7.21,0,0,0,1.9-.18,2.77,2.77,0,0,0,1.13-.72,8.38,8.38,0,0,0,1.44-2.12H363l-1.33,3.86H349.82v-.42h.54a2.16,2.16,0,0,0,1-.26.93.93,0,0,0,.5-.55,5.16,5.16,0,0,0,.13-1.48v-10a3.26,3.26,0,0,0-.3-1.8,1.75,1.75,0,0,0-1.36-.45h-.54v-.42h11.84l.17,3.36h-.44a5.47,5.47,0,0,0-.52-1.66,1.81,1.81,0,0,0-.86-.69,5,5,0,0,0-1.6-.17Z"></path><path class="cls-1" d="M368,139.29v-.42h.58a1.51,1.51,0,0,0,1.38-.63,3.46,3.46,0,0,0,.25-1.67v-9.93a3.23,3.23,0,0,0-.32-1.81,1.65,1.65,0,0,0-1.31-.49H368v-.42h6.26a13.72,13.72,0,0,1,5.24.78,6.21,6.21,0,0,1,2.89,2.61,8,8,0,0,1,1.09,4.21,7.67,7.67,0,0,1-2,5.36q-2.19,2.42-6.66,2.41Zm4.39-1.11a11.57,11.57,0,0,0,2.41.31,5.72,5.72,0,0,0,4.36-1.84,8.11,8.11,0,0,0,0-10,5.85,5.85,0,0,0-4.45-1.83,9.5,9.5,0,0,0-2.32.33Z"></path><path class="cls-1" d="M411.16,124.34v-.42h5.44v.42H416a1.55,1.55,0,0,0-1.39.76,3.4,3.4,0,0,0-.24,1.63V133a10.93,10.93,0,0,1-.46,3.59,4.51,4.51,0,0,1-1.8,2.19,6.42,6.42,0,0,1-3.66.91,6.86,6.86,0,0,1-3.81-.87,4.67,4.67,0,0,1-1.85-2.35,13,13,0,0,1-.37-3.78v-6a3,3,0,0,0-.39-1.86,1.58,1.58,0,0,0-1.26-.44h-.58v-.42h6.64v.42h-.59a1.54,1.54,0,0,0-1.36.6,3.47,3.47,0,0,0-.28,1.7v6.7a16.39,16.39,0,0,0,.16,2,4.47,4.47,0,0,0,.6,1.8,3.28,3.28,0,0,0,1.24,1.07,4.28,4.28,0,0,0,2,.42,5.48,5.48,0,0,0,2.7-.66,3.54,3.54,0,0,0,1.62-1.68,9.59,9.59,0,0,0,.44-3.48v-6.22a3.14,3.14,0,0,0-.32-1.81,1.65,1.65,0,0,0-1.31-.49Z"></path><path class="cls-1" d="M420.61,123.92h4.18l9.39,11.53v-8.87a3,3,0,0,0-.32-1.77,1.68,1.68,0,0,0-1.32-.47H432v-.42h5.35v.42h-.54a1.54,1.54,0,0,0-1.38.59,3.37,3.37,0,0,0-.25,1.65v13h-.41l-10.13-12.38v9.47a3.16,3.16,0,0,0,.3,1.76,1.7,1.7,0,0,0,1.33.48h.54v.42h-5.34v-.42H422a1.58,1.58,0,0,0,1.39-.59,3.37,3.37,0,0,0,.25-1.65v-10.7a8.22,8.22,0,0,0-1-1,4,4,0,0,0-1-.46,3.56,3.56,0,0,0-1-.1Z"></path><path class="cls-1" d="M448.92,138.87v.42h-6.59v-.42h.54a1.68,1.68,0,0,0,1.39-.55,3.52,3.52,0,0,0,.27-1.75v-9.93a5,5,0,0,0-.15-1.54,1,1,0,0,0-.46-.49,2.16,2.16,0,0,0-1.05-.27h-.54v-.42h6.59v.42h-.56a1.62,1.62,0,0,0-1.37.55,3.32,3.32,0,0,0-.29,1.75v9.93a5,5,0,0,0,.15,1.54,1.07,1.07,0,0,0,.48.49,2.11,2.11,0,0,0,1,.27Z"></path><path class="cls-1" d="M470,123.92v.42a2.41,2.41,0,0,0-1.23.52,4.74,4.74,0,0,0-1.07,1.7l-5.36,13.08H462l-5.76-13.25a7.14,7.14,0,0,0-.62-1.25,2,2,0,0,0-.7-.55,3.26,3.26,0,0,0-1.11-.25v-.42H460v.42a2.84,2.84,0,0,0-1.39.36.82.82,0,0,0-.31.67,5.1,5.1,0,0,0,.52,1.77l3.91,9,3.63-8.9a6.08,6.08,0,0,0,.53-1.83.84.84,0,0,0-.33-.62,2.14,2.14,0,0,0-1.11-.43l-.19,0v-.42Z"></path><path class="cls-1" d="M479.24,124.76v6.07h3.37a2.79,2.79,0,0,0,1.76-.39,2.55,2.55,0,0,0,.66-1.84h.42V134H485a5.77,5.77,0,0,0-.32-1.44,1.4,1.4,0,0,0-.67-.62,3.41,3.41,0,0,0-1.43-.23h-3.37v5.07a4.74,4.74,0,0,0,.09,1.24.77.77,0,0,0,.32.35,2,2,0,0,0,.86.13h2.6a7.21,7.21,0,0,0,1.9-.18,2.77,2.77,0,0,0,1.13-.72,8.38,8.38,0,0,0,1.44-2.12H488l-1.32,3.86H474.86v-.42h.55a2.22,2.22,0,0,0,1-.26,1,1,0,0,0,.49-.55,5.16,5.16,0,0,0,.13-1.48v-10a3.26,3.26,0,0,0-.3-1.8,1.73,1.73,0,0,0-1.35-.45h-.55v-.42h11.85l.17,3.36h-.45a5.2,5.2,0,0,0-.52-1.66,1.81,1.81,0,0,0-.86-.69,4.91,4.91,0,0,0-1.6-.17Z"></path><path class="cls-1" d="M508.32,139.29h-4.1L499,132.1l-.95,0h-.31l-.35,0v4.47a3.17,3.17,0,0,0,.31,1.8,1.64,1.64,0,0,0,1.3.5h.6v.42H493v-.42h.58a1.56,1.56,0,0,0,1.4-.64,3.68,3.68,0,0,0,.23-1.66v-9.93a3.1,3.1,0,0,0-.32-1.81,1.65,1.65,0,0,0-1.31-.49H493v-.42h5.6a13.7,13.7,0,0,1,3.61.35,4.06,4.06,0,0,1,2,1.32,3.42,3.42,0,0,1,.81,2.28,3.55,3.55,0,0,1-.92,2.46,5.23,5.23,0,0,1-2.86,1.48l3.17,4.41a7.93,7.93,0,0,0,1.87,2,4.59,4.59,0,0,0,2,.64Zm-10.91-7.9H498a5,5,0,0,0,3.32-1,3.07,3.07,0,0,0,1.11-2.43,3.17,3.17,0,0,0-.9-2.34,3.21,3.21,0,0,0-2.38-.9,10.15,10.15,0,0,0-1.78.21Z"></path><path class="cls-1" d="M522.38,123.57v5.31H522a7,7,0,0,0-.73-2.44,4,4,0,0,0-1.51-1.44,4.2,4.2,0,0,0-2-.53,2.77,2.77,0,0,0-2,.72,2.21,2.21,0,0,0-.77,1.64,2,2,0,0,0,.49,1.28,12.68,12.68,0,0,0,3.35,2.27,24.13,24.13,0,0,1,2.94,1.77,4.32,4.32,0,0,1,1.21,1.46,3.88,3.88,0,0,1,.43,1.76,4,4,0,0,1-1.36,3,4.9,4.9,0,0,1-3.49,1.26,7.11,7.11,0,0,1-1.25-.1,13.27,13.27,0,0,1-1.46-.42,6.87,6.87,0,0,0-1.4-.35.57.57,0,0,0-.45.17,1.29,1.29,0,0,0-.24.7h-.42v-5.27h.42a7.29,7.29,0,0,0,.79,2.47,3.81,3.81,0,0,0,1.53,1.37,4.63,4.63,0,0,0,2.25.55,3.17,3.17,0,0,0,2.23-.75,2.32,2.32,0,0,0,.83-1.77,2.41,2.41,0,0,0-.32-1.15,3.39,3.39,0,0,0-1-1.07,27.8,27.8,0,0,0-2.42-1.45,23.46,23.46,0,0,1-2.8-1.76,4.76,4.76,0,0,1-1.27-1.45,3.69,3.69,0,0,1-.43-1.75,3.78,3.78,0,0,1,1.27-2.85,4.51,4.51,0,0,1,3.23-1.19,6.51,6.51,0,0,1,2.6.6,2.86,2.86,0,0,0,.89.28.69.69,0,0,0,.49-.18,1.44,1.44,0,0,0,.3-.7Z"></path><path class="cls-1" d="M535.89,138.87v.42H529.3v-.42h.54a1.68,1.68,0,0,0,1.39-.55,3.52,3.52,0,0,0,.27-1.75v-9.93a5,5,0,0,0-.15-1.54,1,1,0,0,0-.47-.49,2.15,2.15,0,0,0-1-.27h-.54v-.42h6.59v.42h-.56a1.61,1.61,0,0,0-1.37.55,3.32,3.32,0,0,0-.29,1.75v9.93a5,5,0,0,0,.15,1.54,1.07,1.07,0,0,0,.48.49,2.09,2.09,0,0,0,1,.27Z"></path><path class="cls-1" d="M554,123.92l.17,3.6h-.43a4.39,4.39,0,0,0-.34-1.36,2.36,2.36,0,0,0-.93-1,3.3,3.3,0,0,0-1.54-.31h-2.17v11.75a3.14,3.14,0,0,0,.31,1.76,1.7,1.7,0,0,0,1.33.48h.53v.42h-6.52v-.42h.55a1.56,1.56,0,0,0,1.38-.59,3.49,3.49,0,0,0,.25-1.65V124.88h-1.85a5,5,0,0,0-1.53.16,2.09,2.09,0,0,0-1,.83,3.36,3.36,0,0,0-.5,1.65h-.43l.18-3.6Z"></path><path class="cls-1" d="M565.93,138.87v.42h-6.58v-.42h.54a1.65,1.65,0,0,0,1.38-.55,3.49,3.49,0,0,0,.28-1.75v-9.93a5,5,0,0,0-.15-1.54,1,1,0,0,0-.46-.49,2.22,2.22,0,0,0-1.05-.27h-.54v-.42h6.58v.42h-.55a1.64,1.64,0,0,0-1.38.55,3.46,3.46,0,0,0-.28,1.75v9.93a5,5,0,0,0,.15,1.54,1,1,0,0,0,.48.49,2.06,2.06,0,0,0,1,.27Z"></path><path class="cls-1" d="M575.42,124.76v6.07h3.38a2.77,2.77,0,0,0,1.75-.39,2.51,2.51,0,0,0,.66-1.84h.42V134h-.42a5.34,5.34,0,0,0-.32-1.44,1.36,1.36,0,0,0-.67-.62,3.36,3.36,0,0,0-1.42-.23h-3.38v5.07a4.74,4.74,0,0,0,.09,1.24.77.77,0,0,0,.32.35,2,2,0,0,0,.86.13h2.61a7.12,7.12,0,0,0,1.89-.18,2.77,2.77,0,0,0,1.13-.72,8.38,8.38,0,0,0,1.44-2.12h.45l-1.32,3.86H571v-.42h.55a2.22,2.22,0,0,0,1-.26.92.92,0,0,0,.49-.55,5.16,5.16,0,0,0,.13-1.48v-10a3.4,3.4,0,0,0-.29-1.8,1.77,1.77,0,0,0-1.36-.45H571v-.42h11.85l.17,3.36h-.44a5.41,5.41,0,0,0-.53-1.66,1.76,1.76,0,0,0-.86-.69,4.88,4.88,0,0,0-1.59-.17Z"></path><path class="cls-1" d="M599.46,123.57v5.31H599a6.59,6.59,0,0,0-.73-2.44,3.85,3.85,0,0,0-1.5-1.44,4.2,4.2,0,0,0-2-.53,2.76,2.76,0,0,0-1.95.72,2.21,2.21,0,0,0-.77,1.64,1.9,1.9,0,0,0,.49,1.28,12.57,12.57,0,0,0,3.34,2.27,22.6,22.6,0,0,1,2.94,1.77,4.36,4.36,0,0,1,1.22,1.46,3.87,3.87,0,0,1,.42,1.76,4,4,0,0,1-1.35,3,4.94,4.94,0,0,1-3.49,1.26,7.15,7.15,0,0,1-1.26-.1,13.33,13.33,0,0,1-1.45-.42,7,7,0,0,0-1.4-.35.57.57,0,0,0-.45.17,1.36,1.36,0,0,0-.25.7h-.41v-5.27h.41a7.49,7.49,0,0,0,.8,2.47,3.78,3.78,0,0,0,1.52,1.37,4.68,4.68,0,0,0,2.25.55,3.19,3.19,0,0,0,2.24-.75,2.31,2.31,0,0,0,.82-1.77,2.4,2.4,0,0,0-.31-1.15,3.43,3.43,0,0,0-1-1.07,27,27,0,0,0-2.41-1.45,23.79,23.79,0,0,1-2.81-1.76,4.86,4.86,0,0,1-1.26-1.45,3.57,3.57,0,0,1-.43-1.75,3.78,3.78,0,0,1,1.27-2.85,4.51,4.51,0,0,1,3.23-1.19,6.47,6.47,0,0,1,2.59.6,3,3,0,0,0,.9.28.66.66,0,0,0,.48-.18,1.27,1.27,0,0,0,.3-.7Z"></path><path class="cls-1" d="M250,137l.84-1.38a.55.55,0,0,1,.79-.16c.46.28,2.44,1.61,4.06,1.59a1.94,1.94,0,0,0,2.12-1.72c0-1.29-1.08-1.88-3-2.64-2.19-.84-4.31-2.19-4.31-4.82,0-2,1.47-4.29,5.17-4.29a8.38,8.38,0,0,1,4.66,1.5.54.54,0,0,1,.14.73l-.76,1.12a.65.65,0,0,1-.82.26,8.57,8.57,0,0,0-3.45-1.07c-1.33,0-2,.71-2,1.56,0,1,.95,1.78,2.84,2.51,2.26.87,4.87,2.17,4.87,5.05,0,2.3-2.07,4.43-5.36,4.43a9,9,0,0,1-5.58-2C249.9,137.44,249.78,137.33,250,137Z"></path><path class="cls-1" d="M202.73,123.55a8,8,0,1,1-8,8.06A8,8,0,0,1,202.73,123.55Zm0,13.18a5.14,5.14,0,1,0-5.13-5.12A5.15,5.15,0,0,0,202.73,136.73Z"></path><path class="cls-1" d="M143.47,1h9.59L171.7,34.3V1h8.37V46.18h-9.25l-19-33v33h-8.37Z"></path><path class="cls-1" d="M188.62,1H197V46.18h-8.37Z"></path><path class="cls-1" d="M205.59,1H214V38.08h13.85v8.1H205.59Z"></path><path class="cls-1" d="M232.36,1h24.33V9.16h-16V19.59H256v8.1H240.73V38.08h15.84v8.1H232.36Z"></path><path class="cls-1" d="M281.11,31.41V1h8.37V31.41a8.33,8.33,0,0,0,1.79,5.36,6,6,0,0,0,5,2.38,6.47,6.47,0,0,0,6-3.31,7.89,7.89,0,0,0,1-4.05V1h8.4v30.5a15.78,15.78,0,0,1-4.11,10.84,14.23,14.23,0,0,1-11.14,4.91,14.5,14.5,0,0,1-7.61-2.09,15.52,15.52,0,0,1-5.55-5.71A15.92,15.92,0,0,1,281.11,31.41Z"></path><path class="cls-1" d="M320.21,1h9.59L348.44,34.3V1h8.37V46.18h-9.25l-19-33v33h-8.37Z"></path><path class="cls-1" d="M365.36,1h8.37V46.18h-8.37Z"></path><path class="cls-1" d="M396.18,46.18l-17.39-45h8.68l12.19,34.27L411.78,1.18h8.79l-17.36,45Z"></path><path class="cls-1" d="M425,1H449.3V9.16h-16V19.59h15.25v8.1H433.34V38.08h15.84v8.1H425Z"></path><path class="cls-1" d="M470.3,1a19.53,19.53,0,0,1,8.43,1.55,12.84,12.84,0,0,1,7.44,8.55,16,16,0,0,1,.6,4.5,13.81,13.81,0,0,1-4.83,10.6,15,15,0,0,1-6.88,3.36L487.3,46.18H476.94L465.18,28.67V46.18h-8.49V1Zm-5.24,8.19V22.44h5.36a9.21,9.21,0,0,0,5.86-1.75q2.12-1.67,2.12-5.36a5,5,0,0,0-2.5-4.74,13,13,0,0,0-6.35-1.43Z"></path><path class="cls-1" d="M490.46,13.06a12.56,12.56,0,0,1,1.77-6.64,12.35,12.35,0,0,1,5-4.58,14.08,14.08,0,0,1,14.2.59q5,3.13,5.66,10.63h-8.6a5.59,5.59,0,0,0-1-2.59,4.57,4.57,0,0,0-3.93-2.05,4.39,4.39,0,0,0-3.47,1.44,5.41,5.41,0,0,0-1.26,3.68q.27,2.48,3.63,3.93l6.85,3a18.67,18.67,0,0,1,6,4.08,10.55,10.55,0,0,1,2.77,7.68,15.31,15.31,0,0,1-2.1,8.22,13.42,13.42,0,0,1-5.4,5.06,15.54,15.54,0,0,1-7,1.79,15,15,0,0,1-8.81-2.71,13.58,13.58,0,0,1-5.36-7.39,11.87,11.87,0,0,1-.57-3.63h8.79a5.58,5.58,0,0,0,5.48,5.6,7.57,7.57,0,0,0,4-1.25,5.39,5.39,0,0,0,2.48-2.83,7.81,7.81,0,0,0,.47-2.38q0-2.68-3.12-4.35c-1.83-.71-3.66-1.44-5.48-2.17a22.07,22.07,0,0,1-7.95-5A11.38,11.38,0,0,1,490.46,13.06Z"></path><path class="cls-1" d="M523.81,1h8.37V46.18h-8.37Z"></path><path class="cls-1" d="M537.12,9.16V1h25.14V9.16h-8.49v37h-8.28l-.12-37Z"></path><path class="cls-1" d="M562.37,1h9.27l9.76,20.64L591.35,1h9.14L585.6,29.53V46.18h-8.34V29.53Z"></path><path class="cls-1" d="M140.51,76.09q0-7.2,4.79-11.45a14.81,14.81,0,0,1,4.84-2.93,15.26,15.26,0,0,1,5.37-1,14.06,14.06,0,0,1,7.45,2.1,15.17,15.17,0,0,1,5.38,5.58,13.88,13.88,0,0,1,2,7.47l0,.81a11.37,11.37,0,0,1-.45,2.7,20.53,20.53,0,0,1-1.33,3.16,14.32,14.32,0,0,1-5.47,6,15.12,15.12,0,0,1-7.88,2.11,14.78,14.78,0,0,1-6.48-1.44,13.89,13.89,0,0,1-7.34-8.3A14.56,14.56,0,0,1,140.51,76.09Zm5.24-.22a8.73,8.73,0,0,0,1.64,5.1,11,11,0,0,0,3.43,3.18,8.68,8.68,0,0,0,4.46,1.3A9.26,9.26,0,0,0,160,84.17a10.31,10.31,0,0,0,5-8.47,10.09,10.09,0,0,0-1.43-5.29,9.19,9.19,0,0,0-4-3.6,8.75,8.75,0,0,0-3.8-.94,10.29,10.29,0,0,0-8.47,4.48A9.41,9.41,0,0,0,145.75,75.87Z"></path><path class="cls-1" d="M174.45,61.25h14.6v5.16h-9.29V73h8.87v5.21h-8.87V89.92h-5.31Z"></path><path class="cls-1" d="M203.85,61.25h6.09l11.84,21.12V61.25h5.31V89.92h-5.88l-12-21v21h-5.32Z"></path><path class="cls-1" d="M232.52,61.25h5.31V89.92h-5.31Z"></path><path class="cls-1" d="M256.3,60.72a16.84,16.84,0,0,1,10.1,3.1A14.76,14.76,0,0,1,271,69.74h-6.35a7.8,7.8,0,0,0-3.22-2.83,9,9,0,0,0-4.17-1h-.46a2.48,2.48,0,0,0-.41,0,9,9,0,0,0-4.47,1.42,9.48,9.48,0,0,0-3.46,3.4,8.81,8.81,0,0,0-1.28,4.63,10.06,10.06,0,0,0,1.34,5.12,9.57,9.57,0,0,0,3.78,3.63,10,10,0,0,0,4.79,1.31,9.66,9.66,0,0,0,5-1.38,10,10,0,0,0,3.65-3.76h-12v-5h18.66a15.37,15.37,0,0,1-1.94,7.6,15,15,0,0,1-13.22,7.7,15.86,15.86,0,0,1-7.73-2,15.26,15.26,0,0,1-5.72-5.48,14,14,0,0,1-2.1-7.41l.08-.45a13.31,13.31,0,0,1,1.32-5.56A15.3,15.3,0,0,1,251,62,13.07,13.07,0,0,1,256.3,60.72Z"></path><path class="cls-1" d="M275.81,61.25h15.45v5.16H281.13V73h9.68v5.14h-9.68v6.6h10.06v5.15H275.81Z"></path><path class="cls-1" d="M304.59,61.21a12.38,12.38,0,0,1,5.35,1,8.15,8.15,0,0,1,4.73,5.42,10.36,10.36,0,0,1,.38,2.86A8.74,8.74,0,0,1,312,77.21a9.56,9.56,0,0,1-4.36,2.14l7.77,10.57h-6.58L301.34,78.8V89.92H296V61.25Zm-3.33,5.2v8.44h3.41a5.81,5.81,0,0,0,3.72-1.12,4.06,4.06,0,0,0,1.34-3.4,3.14,3.14,0,0,0-1.59-3,8.24,8.24,0,0,0-4-.91Z"></path><path class="cls-1" d="M318.43,61.25h5.31V89.92h-5.31Z"></path><path class="cls-1" d="M338.81,61.25h4.11L355,89.92h-5.81l-3.09-7.4H335.88l-3.18,7.4h-5.82Zm2.06,7.49-3,8.62H344Z"></path><path class="cls-1" d="M112.5,0H7.11A7.07,7.07,0,0,0,0,7.07V120.81c2.72,0,37.42.09,47.07,1.23s20.45,3.57,16.43,9.6c-3.47,5.2,5.35,8.24,14.28,8.69,7.93.42,41.84.57,41.84.57V7.07A7.08,7.08,0,0,0,112.5,0Z"></path><path class="cls-1" d="M48.43,125.23c-7-2.75-45.58-3.11-48.43-3.13v19.16c1.2-1.38,23.46-6.46,32.58-7.82C43.64,131.79,60.68,130,48.43,125.23Z"></path><path class="cls-2" d="M82,73.94h16.4v5.6H87.72V85H98.44v5.5H87.72v7.9H98.44V104H82ZM79.5,98.52V104h-14v-30h5.72V98.52ZM26.89,84.27V104H21.18v-30h5.48L39.51,93.7V73.94h5.72v30h-5.5Z"></path><polygon class="cls-2" points="71.18 73.94 65.46 73.94 65.46 103.97 79.5 103.97 79.5 98.52 71.18 98.52 71.18 73.94"></polygon><polygon class="cls-2" points="98.44 98.36 87.72 98.36 87.72 90.46 98.44 90.46 98.44 84.96 87.72 84.96 87.72 79.54 98.44 79.54 98.44 73.94 82.04 73.94 82.04 103.97 98.44 103.97 98.44 98.36"></polygon><polygon class="cls-2" points="45.23 73.94 39.51 73.94 39.51 93.7 26.66 73.94 21.18 73.94 21.18 103.97 26.89 103.97 26.89 84.27 39.73 103.97 45.23 103.97 45.23 73.94"></polygon><rect class="cls-2" x="52.89" y="73.94" width="5.71" height="30.03"></rect><line class="cls-2" x1="58.6" y1="103.97" x2="58.68" y2="103.97"></line><polygon class="cls-2" points="74.27 68.02 74.72 67.69 74.58 67.69 74.27 68.02"></polygon><polygon class="cls-2" points="47.18 68 46.88 67.69 46.74 67.69 47.18 68"></polygon><polygon class="cls-2" points="90.33 67.69 108.92 58.9 82.5 67.69 90.33 67.69"></polygon><polygon class="cls-2" points="80.43 67.69 108.92 47.13 74.72 67.69 80.43 67.69"></polygon><polygon class="cls-2" points="38.94 67.69 11.01 54.46 31.08 67.69 38.94 67.69"></polygon><path class="cls-2" d="M74.58,67.69l34.34-36.12L71.71,65.86l33.82-52.53c-.74-.34-36.71,50.86-36.71,50.86l20.66-51.4L65.67,63.09l9.73-50.3-13,49.68,0-49.68-3.3,49.69L45.86,12.79l9.91,50.26-24-50.26L52.63,64.18S15.89,12.86,15.44,13L49.75,65.86,11,30.17,46.87,67.69Z"></path><polygon class="cls-2" points="46.74 67.69 11.01 41.91 41.01 67.69 46.74 67.69"></polygon></g></g></svg>