<svg xmlns="http://www.w3.org/2000/svg" viewBox="0 0 152.9 35.97"><defs><style>.cls-1{fill:#75b947;}.cls-2{fill:#1d1d1b;}.cls-3{fill:#274193;}.cls-4{fill:#fff;}</style></defs><g id="Layer_2" data-name="Layer 2"><g id="Calque_1" data-name="Calque 1"><rect class="cls-1" x="35.78" y="26.07" width="117.07" height="1.23"></rect><path class="cls-2" d="M35.68,31.61a.12.12,0,0,1,.11-.11h.53a.11.11,0,0,1,.11.11v1.52h1.63V31.61a.1.1,0,0,1,.11-.11h.52a.11.11,0,0,1,.11.11v3.8a.11.11,0,0,1-.11.11h-.52a.1.1,0,0,1-.11-.11V33.83H36.43v1.58a.11.11,0,0,1-.11.11h-.53a.12.12,0,0,1-.11-.11Z"></path><path class="cls-2" d="M42,31.46a2,2,0,1,1,0,4.09,2,2,0,0,1,0-4.09Zm0,3.36a1.31,1.31,0,1,0-1.3-1.31A1.32,1.32,0,0,0,42,34.82Z"></path><path class="cls-2" d="M45.18,31.6a.1.1,0,0,1,.11-.1h.14L47.68,34h0V31.61a.1.1,0,0,1,.11-.11h.52a.11.11,0,0,1,.11.11v3.81a.1.1,0,0,1-.11.1h-.14L45.92,33h0v2.37a.1.1,0,0,1-.11.11h-.51a.11.11,0,0,1-.11-.11Z"></path><path class="cls-2" d="M54.82,31.61a.1.1,0,0,1,.1-.11h1.9a1.23,1.23,0,0,1,1.23,1.23,1.29,1.29,0,0,1-.83,1.18L58,35.36a.1.1,0,0,1-.09.16h-.59a.09.09,0,0,1-.09-.05L56.46,34h-.91v1.45a.11.11,0,0,1-.11.11h-.52a.1.1,0,0,1-.1-.11Zm1.94,1.71a.57.57,0,0,0,0-1.13H55.55v1.13Z"></path><path class="cls-2" d="M60.46,31.72a.11.11,0,0,1,.11-.11h.55a.11.11,0,0,1,.11.11V35.3a.12.12,0,0,1-.11.11h-.55a.12.12,0,0,1-.11-.11Z"></path><path class="cls-2" d="M62.29,34.9a.09.09,0,0,1,.09.08v.45a.09.09,0,0,1-.09.09h-2.9a.09.09,0,0,1-.08-.09V35a.09.09,0,0,1,.08-.08Z"></path><path class="cls-2" d="M62.07,31.5a.09.09,0,0,1,.08.09V32a.09.09,0,0,1-.08.09H59.62a.09.09,0,0,1-.08-.09v-.44a.09.09,0,0,1,.08-.09Z"></path><path class="cls-2" d="M73.51,31.66v-.11H74.9v.11h-.15a.41.41,0,0,0-.36.19.91.91,0,0,0-.06.42v1.59a3.08,3.08,0,0,1-.11.91,1.16,1.16,0,0,1-.46.56,1.68,1.68,0,0,1-.93.23,1.87,1.87,0,0,1-1-.22,1.27,1.27,0,0,1-.47-.6,3.37,3.37,0,0,1-.09-1V32.25a.76.76,0,0,0-.1-.48.41.41,0,0,0-.32-.11h-.15v-.11h1.69v.11h-.15a.38.38,0,0,0-.34.15.87.87,0,0,0-.07.44V34a3.37,3.37,0,0,0,0,.52,1.18,1.18,0,0,0,.15.46.82.82,0,0,0,.31.27,1.13,1.13,0,0,0,.51.11,1.41,1.41,0,0,0,.69-.17.85.85,0,0,0,.41-.43,2.3,2.3,0,0,0,.11-.88V32.25c0-.25,0-.4-.08-.46a.39.39,0,0,0-.33-.13Z"></path><path class="cls-2" d="M75.92,31.55H77l2.39,2.94V32.23c0-.24,0-.39-.08-.45a.43.43,0,0,0-.34-.12h-.13v-.11h1.36v.11H80a.4.4,0,0,0-.35.15.91.91,0,0,0-.06.42v3.3h-.11l-2.58-3.15v2.41a.81.81,0,0,0,.08.45.44.44,0,0,0,.34.12h.14v.11H76.13v-.11h.14a.38.38,0,0,0,.35-.15.76.76,0,0,0,.07-.42V32.07a2.33,2.33,0,0,0-.26-.27.81.81,0,0,0-.26-.11.77.77,0,0,0-.25,0Z"></path><path class="cls-2" d="M83.12,35.36v.11H81.45v-.11h.14a.42.42,0,0,0,.35-.14,1,1,0,0,0,.07-.45V32.25a1.2,1.2,0,0,0,0-.4.23.23,0,0,0-.12-.12.48.48,0,0,0-.26-.07h-.14v-.11h1.67v.11H83a.44.44,0,0,0-.35.14,1,1,0,0,0-.07.45v2.52a1.2,1.2,0,0,0,0,.4.28.28,0,0,0,.12.12.48.48,0,0,0,.26.07Z"></path><path class="cls-2" d="M87.73,31.55l0,.92h-.11a1,1,0,0,0-.09-.35.56.56,0,0,0-.24-.24.75.75,0,0,0-.39-.08h-.55v3a.81.81,0,0,0,.08.45.44.44,0,0,0,.34.12h.13v.11H85.28v-.11h.14a.39.39,0,0,0,.35-.15.76.76,0,0,0,.07-.42v-3h-.47a1.17,1.17,0,0,0-.39,0,.47.47,0,0,0-.26.21.91.91,0,0,0-.13.42h-.11l0-.92Z"></path><path class="cls-2" d="M90.19,31.77v1.54h.86a.66.66,0,0,0,.44-.1.64.64,0,0,0,.17-.47h.11v1.37h-.11a1.5,1.5,0,0,0-.08-.37.33.33,0,0,0-.17-.16.84.84,0,0,0-.36-.06h-.86v1.29a1.08,1.08,0,0,0,0,.32.18.18,0,0,0,.08.09.54.54,0,0,0,.22,0h.66a1.92,1.92,0,0,0,.49,0,.61.61,0,0,0,.28-.19,1.79,1.79,0,0,0,.37-.54h.12l-.34,1h-3v-.11h.14a.48.48,0,0,0,.26-.07.2.2,0,0,0,.13-.14,1.41,1.41,0,0,0,0-.37V32.23a.86.86,0,0,0-.07-.46.49.49,0,0,0-.35-.11h-.14v-.11h3l0,.86H92a1.72,1.72,0,0,0-.13-.43.54.54,0,0,0-.22-.17,1.35,1.35,0,0,0-.41,0Z"></path><path class="cls-2" d="M93.7,35.47v-.11h.15a.38.38,0,0,0,.35-.16,1,1,0,0,0,.06-.43V32.25c0-.25,0-.4-.08-.46a.4.4,0,0,0-.33-.13H93.7v-.11h1.59a3.56,3.56,0,0,1,1.34.2,1.57,1.57,0,0,1,.73.67,2,2,0,0,1,.28,1.07,1.94,1.94,0,0,1-.49,1.36,2.2,2.2,0,0,1-1.7.62Zm1.12-.29a2.55,2.55,0,0,0,.61.08,1.42,1.42,0,0,0,1.11-.47A1.74,1.74,0,0,0,97,33.52a1.76,1.76,0,0,0-.44-1.28,1.49,1.49,0,0,0-1.13-.47,2.23,2.23,0,0,0-.59.09Z"></path><path class="cls-2" d="M104.69,31.66v-.11h1.39v.11h-.15a.41.41,0,0,0-.36.19.91.91,0,0,0-.06.42v1.59a2.78,2.78,0,0,1-.11.91,1.16,1.16,0,0,1-.46.56,1.68,1.68,0,0,1-.93.23,1.81,1.81,0,0,1-1-.22,1.23,1.23,0,0,1-.48-.6,3.37,3.37,0,0,1-.09-1V32.25a.76.76,0,0,0-.1-.48.41.41,0,0,0-.32-.11h-.15v-.11h1.7v.11h-.16a.38.38,0,0,0-.34.15.87.87,0,0,0-.07.44V34a3.37,3.37,0,0,0,0,.52,1.18,1.18,0,0,0,.15.46.78.78,0,0,0,.32.27,1.06,1.06,0,0,0,.5.11,1.41,1.41,0,0,0,.69-.17.85.85,0,0,0,.41-.43,2.3,2.3,0,0,0,.11-.88V32.25c0-.25,0-.4-.08-.46a.39.39,0,0,0-.33-.13Z"></path><path class="cls-2" d="M107.1,31.55h1.06l2.39,2.94V32.23c0-.24,0-.39-.08-.45a.43.43,0,0,0-.34-.12H110v-.11h1.36v.11h-.14a.4.4,0,0,0-.35.15.91.91,0,0,0-.06.42v3.3h-.11l-2.58-3.15v2.41a.81.81,0,0,0,.08.45.44.44,0,0,0,.34.12h.14v.11h-1.36v-.11h.13a.41.41,0,0,0,.36-.15.91.91,0,0,0,.06-.42V32.07a1.71,1.71,0,0,0-.26-.27.81.81,0,0,0-.26-.11.77.77,0,0,0-.25,0Z"></path><path class="cls-2" d="M114.3,35.36v.11h-1.67v-.11h.14a.42.42,0,0,0,.35-.14.84.84,0,0,0,.07-.45V32.25a1.2,1.2,0,0,0,0-.4.23.23,0,0,0-.12-.12.48.48,0,0,0-.26-.07h-.14v-.11h1.67v.11h-.14a.44.44,0,0,0-.35.14,1,1,0,0,0-.07.45v2.52a1.2,1.2,0,0,0,0,.4.28.28,0,0,0,.12.12.48.48,0,0,0,.26.07Z"></path><path class="cls-2" d="M119.68,31.55v.11a.59.59,0,0,0-.31.13,1.33,1.33,0,0,0-.27.43l-1.37,3.34h-.11l-1.46-3.38a2.91,2.91,0,0,0-.16-.32.62.62,0,0,0-.18-.14.9.9,0,0,0-.28-.06v-.11h1.6v.11a.91.91,0,0,0-.36.09.23.23,0,0,0-.08.17,1.28,1.28,0,0,0,.14.45l1,2.3.93-2.27a1.48,1.48,0,0,0,.13-.46.23.23,0,0,0-.08-.16.57.57,0,0,0-.29-.11h0v-.11Z"></path><path class="cls-2" d="M122,31.77v1.54h.86a.66.66,0,0,0,.44-.1.64.64,0,0,0,.17-.47h.11v1.37h-.11a1.5,1.5,0,0,0-.08-.37.33.33,0,0,0-.17-.16.84.84,0,0,0-.36-.06H122v1.29a1.08,1.08,0,0,0,0,.32.14.14,0,0,0,.08.09.54.54,0,0,0,.22,0H123a1.88,1.88,0,0,0,.48,0,.64.64,0,0,0,.29-.19,2,2,0,0,0,.37-.54h.11l-.33,1h-3v-.11h.14a.48.48,0,0,0,.26-.07.23.23,0,0,0,.13-.14,1.41,1.41,0,0,0,0-.37V32.23a.86.86,0,0,0-.07-.46.49.49,0,0,0-.35-.11h-.14v-.11h3l0,.86h-.11a1.33,1.33,0,0,0-.14-.43.51.51,0,0,0-.21-.17,1.35,1.35,0,0,0-.41,0Z"></path><path class="cls-2" d="M129.43,35.47h-1l-1.33-1.83h-.41v1.13a.83.83,0,0,0,.08.46.42.42,0,0,0,.33.13h.15v.11h-1.67v-.11h.15a.38.38,0,0,0,.35-.16.93.93,0,0,0,.06-.43V32.25a.83.83,0,0,0-.08-.46.4.4,0,0,0-.33-.13h-.15v-.11H127a3.37,3.37,0,0,1,.92.09,1.1,1.1,0,0,1,.51.34.89.89,0,0,1,.2.58,1,1,0,0,1-.23.63,1.36,1.36,0,0,1-.73.37l.81,1.12a2.08,2.08,0,0,0,.47.52,1.23,1.23,0,0,0,.52.16Zm-2.78-2h.16a1.29,1.29,0,0,0,.85-.24.79.79,0,0,0,.28-.62.78.78,0,0,0-.23-.6.81.81,0,0,0-.6-.23,2.32,2.32,0,0,0-.46.06Z"></path><path class="cls-2" d="M133,31.46v1.36h-.1a1.75,1.75,0,0,0-.19-.62,1,1,0,0,0-.38-.37,1.1,1.1,0,0,0-.52-.14.7.7,0,0,0-.49.19.56.56,0,0,0-.2.41.52.52,0,0,0,.12.33,3.35,3.35,0,0,0,.86.58,4.69,4.69,0,0,1,.74.45,1,1,0,0,1,.31.37.88.88,0,0,1,.11.45,1,1,0,0,1-.34.76,1.24,1.24,0,0,1-.89.33,1.66,1.66,0,0,1-.32,0,2.25,2.25,0,0,1-.37-.11,1.72,1.72,0,0,0-.36-.09.14.14,0,0,0-.11.05.31.31,0,0,0-.06.18h-.11V34.21h.11a1.79,1.79,0,0,0,.2.63.9.9,0,0,0,.39.35,1.2,1.2,0,0,0,.57.14.8.8,0,0,0,.57-.19.6.6,0,0,0,.21-.45.63.63,0,0,0-.08-.29.92.92,0,0,0-.25-.28c-.07,0-.28-.18-.61-.36a6.08,6.08,0,0,1-.72-.45,1.22,1.22,0,0,1-.32-.37,1,1,0,0,1,.21-1.17,1.14,1.14,0,0,1,.83-.31,1.55,1.55,0,0,1,.66.16.89.89,0,0,0,.23.07.17.17,0,0,0,.12-.05.38.38,0,0,0,.08-.18Z"></path><path class="cls-2" d="M136.45,35.36v.11h-1.68v-.11h.14a.42.42,0,0,0,.35-.14.84.84,0,0,0,.07-.45V32.25a1.2,1.2,0,0,0,0-.4.18.18,0,0,0-.11-.12.54.54,0,0,0-.27-.07h-.14v-.11h1.68v.11h-.14a.42.42,0,0,0-.35.14.84.84,0,0,0-.07.45v2.52a1.71,1.71,0,0,0,0,.4.26.26,0,0,0,.13.12.48.48,0,0,0,.26.07Z"></path><path class="cls-2" d="M141.05,31.55l0,.92H141a1.4,1.4,0,0,0-.08-.35.56.56,0,0,0-.24-.24.75.75,0,0,0-.39-.08h-.55v3a.84.84,0,0,0,.07.45.45.45,0,0,0,.34.12h.14v.11h-1.66v-.11h.14a.4.4,0,0,0,.35-.15.91.91,0,0,0,.06-.42v-3h-.47a1.24,1.24,0,0,0-.39,0,.51.51,0,0,0-.26.21.8.8,0,0,0-.12.42h-.11l0-.92Z"></path><path class="cls-2" d="M144.1,35.36v.11h-1.68v-.11h.14a.42.42,0,0,0,.35-.14.84.84,0,0,0,.07-.45V32.25a1.71,1.71,0,0,0,0-.4.23.23,0,0,0-.12-.12.54.54,0,0,0-.27-.07h-.14v-.11h1.68v.11H144a.42.42,0,0,0-.35.14.84.84,0,0,0-.07.45v2.52a1.2,1.2,0,0,0,0,.4.2.2,0,0,0,.12.12.48.48,0,0,0,.26.07Z"></path><path class="cls-2" d="M146.52,31.77v1.54h.86a.66.66,0,0,0,.44-.1.64.64,0,0,0,.17-.47h.11v1.37H148a1.5,1.5,0,0,0-.08-.37.33.33,0,0,0-.17-.16.84.84,0,0,0-.36-.06h-.86v1.29a1.08,1.08,0,0,0,0,.32.14.14,0,0,0,.08.09.54.54,0,0,0,.22,0h.66a2,2,0,0,0,.49,0,.66.66,0,0,0,.28-.19,1.79,1.79,0,0,0,.37-.54h.12l-.34,1h-3v-.11h.14a.48.48,0,0,0,.26-.07.23.23,0,0,0,.13-.14,1.41,1.41,0,0,0,0-.37V32.23a.86.86,0,0,0-.07-.46.49.49,0,0,0-.35-.11h-.14v-.11h3l0,.86h-.11a1.33,1.33,0,0,0-.14-.43.45.45,0,0,0-.21-.17,1.35,1.35,0,0,0-.41,0Z"></path><path class="cls-2" d="M152.64,31.46v1.36h-.11a1.57,1.57,0,0,0-.19-.62.9.9,0,0,0-.38-.37,1,1,0,0,0-.51-.14.72.72,0,0,0-.5.19.54.54,0,0,0-.19.41.52.52,0,0,0,.12.33,3.24,3.24,0,0,0,.85.58,4.45,4.45,0,0,1,.75.45,1.1,1.1,0,0,1,.31.37,1,1,0,0,1,.11.45,1,1,0,0,1-.35.76,1.22,1.22,0,0,1-.89.33,1.66,1.66,0,0,1-.32,0,2.25,2.25,0,0,1-.37-.11,1.55,1.55,0,0,0-.35-.09.17.17,0,0,0-.12.05.41.41,0,0,0-.06.18h-.11V34.21h.11a2,2,0,0,0,.2.63,1,1,0,0,0,.39.35,1.26,1.26,0,0,0,.57.14.8.8,0,0,0,.57-.19.6.6,0,0,0,.21-.45.53.53,0,0,0-.08-.29.88.88,0,0,0-.24-.28c-.08,0-.28-.18-.62-.36a6.68,6.68,0,0,1-.71-.45,1.22,1.22,0,0,1-.32-.37.86.86,0,0,1-.11-.45.93.93,0,0,1,.32-.72,1.13,1.13,0,0,1,.82-.31,1.52,1.52,0,0,1,.66.16,1,1,0,0,0,.23.07.17.17,0,0,0,.12-.05.3.3,0,0,0,.08-.18Z"></path><path class="cls-2" d="M63.65,34.88l.22-.36a.15.15,0,0,1,.2,0,2.23,2.23,0,0,0,1,.41.49.49,0,0,0,.54-.44c0-.33-.27-.48-.77-.67s-1.1-.56-1.1-1.23c0-.51.37-1.09,1.32-1.09a2.07,2.07,0,0,1,1.18.38.14.14,0,0,1,0,.19l-.19.28a.16.16,0,0,1-.21.07,2.19,2.19,0,0,0-.88-.27c-.34,0-.52.18-.52.39s.24.45.72.64,1.24.55,1.24,1.29a1.23,1.23,0,0,1-1.36,1.12,2.33,2.33,0,0,1-1.43-.5S63.6,35,63.65,34.88Z"></path><path class="cls-2" d="M51.62,31.46a2,2,0,1,1-2,2A2,2,0,0,1,51.62,31.46Zm0,3.36a1.31,1.31,0,1,0-1.31-1.31A1.31,1.31,0,0,0,51.62,34.82Z"></path><path class="cls-3" d="M36.53.26H39l4.75,8.47V.26h2.13v11.5H43.49L38.66,3.35v8.41H36.53Z"></path><path class="cls-3" d="M48,.26h2.13v11.5H48Z"></path><path class="cls-3" d="M52.35.26h2.13V9.7H58v2.06H52.35Z"></path><path class="cls-3" d="M59.17.26h6.19V2.33H61.3V5h3.88V7.05H61.3V9.7h4v2.06H59.17Z"></path><path class="cls-3" d="M71.58,8V.26h2.13V8a2.12,2.12,0,0,0,.45,1.36,1.55,1.55,0,0,0,1.27.61A1.63,1.63,0,0,0,77,9.13a2,2,0,0,0,.25-1V.26h2.14V8a4.07,4.07,0,0,1-1,2.76A3.64,3.64,0,0,1,75.46,12a3.75,3.75,0,0,1-1.94-.53A4.07,4.07,0,0,1,71.58,8Z"></path><path class="cls-3" d="M81.53.26H84l4.74,8.47V.26h2.13v11.5H88.5L83.66,3.35v8.41H81.53Z"></path><path class="cls-3" d="M93,.26h2.13v11.5H93Z"></path><path class="cls-3" d="M100.88,11.76,96.45.3h2.21L101.76,9,104.85.3h2.24l-4.42,11.46Z"></path><path class="cls-3" d="M108.21.26h6.19V2.33h-4.06V5h3.88V7.05h-3.88V9.7h4v2.06h-6.16Z"></path><path class="cls-3" d="M119.75.25a4.9,4.9,0,0,1,2.15.39,3.26,3.26,0,0,1,1.89,2.18A4.14,4.14,0,0,1,123.94,4a3.5,3.5,0,0,1-1.23,2.7,3.74,3.74,0,0,1-1.75.86l3.12,4.24h-2.64l-3-4.46v4.46h-2.17V.26Zm-1.34,2.08V5.71h1.37a2.32,2.32,0,0,0,1.49-.44,1.65,1.65,0,0,0,.54-1.37,1.24,1.24,0,0,0-.64-1.2,3.17,3.17,0,0,0-1.61-.37Z"></path><path class="cls-3" d="M124.88,3.33a3.16,3.16,0,0,1,.45-1.69A3.12,3.12,0,0,1,126.6.47a3.49,3.49,0,0,1,1.68-.42,3.56,3.56,0,0,1,1.93.57,3.29,3.29,0,0,1,1.44,2.71h-2.19a1.38,1.38,0,0,0-.24-.66,1.17,1.17,0,0,0-1-.53,1.11,1.11,0,0,0-.88.37,1.37,1.37,0,0,0-.33.94c0,.42.36.75.93,1l1.74.76a4.76,4.76,0,0,1,1.53,1,2.67,2.67,0,0,1,.71,1.95,3.85,3.85,0,0,1-.54,2.09A3.32,3.32,0,0,1,130,11.58a3.88,3.88,0,0,1-4-.23,3.48,3.48,0,0,1-1.36-1.88,3,3,0,0,1-.14-.93h2.23A1.43,1.43,0,0,0,128.1,10a1.93,1.93,0,0,0,1-.32,1.34,1.34,0,0,0,.63-.72,2,2,0,0,0,.12-.61,1.24,1.24,0,0,0-.79-1.1l-1.4-.56a5.66,5.66,0,0,1-2-1.26A2.9,2.9,0,0,1,124.88,3.33Z"></path><path class="cls-3" d="M133.38.26h2.13v11.5h-2.13Z"></path><path class="cls-3" d="M136.76,2.33V.26h6.4V2.33H141v9.43h-2.1l0-9.43Z"></path><path class="cls-3" d="M143.19.26h2.36L148,5.52,150.57.26h2.33l-3.79,7.26v4.24H147V7.52Z"></path><path class="cls-3" d="M35.78,19.38A3.68,3.68,0,0,1,37,16.46a3.81,3.81,0,0,1,1.23-.75,4.09,4.09,0,0,1,1.37-.25,3.52,3.52,0,0,1,1.89.54,3.81,3.81,0,0,1,1.37,1.42,3.46,3.46,0,0,1,.52,1.9v.2a2.49,2.49,0,0,1-.12.69,4.32,4.32,0,0,1-.33.81,3.68,3.68,0,0,1-1.4,1.52,4,4,0,0,1-3.65.17A3.54,3.54,0,0,1,36,20.59,3.61,3.61,0,0,1,35.78,19.38Zm1.33-.06a2.21,2.21,0,0,0,.42,1.3,2.81,2.81,0,0,0,.87.81,2.26,2.26,0,0,0,1.14.33,2.34,2.34,0,0,0,1.21-.33A2.61,2.61,0,0,0,42,19.27a2.56,2.56,0,0,0-.36-1.34,2.34,2.34,0,0,0-1-.92,2.24,2.24,0,0,0-1-.24,2.62,2.62,0,0,0-1.22.3,2.68,2.68,0,0,0-.93.84A2.42,2.42,0,0,0,37.11,19.32Z"></path><path class="cls-3" d="M44.42,15.6h3.72v1.31H45.77v1.67H48v1.33H45.77v3H44.42Z"></path><path class="cls-3" d="M51.91,15.6h1.55l3,5.37V15.6h1.35v7.29H56.33l-3.07-5.33v5.33H51.91Z"></path><path class="cls-3" d="M59.2,15.6h1.36v7.29H59.2Z"></path><path class="cls-3" d="M65.26,15.46a4.24,4.24,0,0,1,2.57.79A3.75,3.75,0,0,1,69,17.76H67.38a2,2,0,0,0-.81-.72,2.35,2.35,0,0,0-1.07-.26h-.22a2.35,2.35,0,0,0-1.14.36,2.53,2.53,0,0,0-.88.87,2.2,2.2,0,0,0-.32,1.18,2.52,2.52,0,0,0,.34,1.3,2.37,2.37,0,0,0,1,.92,2.48,2.48,0,0,0,1.22.34,2.51,2.51,0,0,0,1.28-.35,2.67,2.67,0,0,0,.93-1H64.61V19.18h4.75a3.87,3.87,0,0,1-.49,1.93,3.8,3.8,0,0,1-3.37,2,4,4,0,0,1-2-.5,3.79,3.79,0,0,1-1.45-1.39,3.52,3.52,0,0,1-.54-1.89l0-.11a3.47,3.47,0,0,1,.34-1.42,3.9,3.9,0,0,1,2-2A3.36,3.36,0,0,1,65.26,15.46Z"></path><path class="cls-3" d="M70.23,15.6h3.93v1.31H71.58V18.6h2.47v1.31H71.58v1.68h2.56v1.3H70.23Z"></path><path class="cls-3" d="M77.56,15.59a3,3,0,0,1,1.36.25,2.08,2.08,0,0,1,1.2,1.38,2.39,2.39,0,0,1,.1.73,2.22,2.22,0,0,1-.78,1.71,2.32,2.32,0,0,1-1.11.54l2,2.69H78.63l-1.9-2.83v2.83H75.36V15.6Zm-.85,1.32v2.15h.87a1.47,1.47,0,0,0,.94-.29,1,1,0,0,0,.35-.86.8.8,0,0,0-.41-.77,2.13,2.13,0,0,0-1-.23Z"></path><path class="cls-3" d="M81.08,15.6h1.35v7.29H81.08Z"></path><path class="cls-3" d="M86.27,15.6h1l3.08,7.29H88.91L88.12,21h-2.6l-.81,1.88H83.23Zm.52,1.9L86,19.7h1.56Z"></path><path class="cls-3" d="M28.65,0H1.81A1.8,1.8,0,0,0,0,1.8v29c.69,0,9.53,0,12,.31s5.2.91,4.18,2.45c-.89,1.32,1.36,2.1,3.64,2.21,2,.11,10.65.15,10.65.15V1.8A1.8,1.8,0,0,0,28.65,0Z"></path><path class="cls-1" d="M12.33,31.89c-1.79-.7-11.6-.79-12.33-.8V36c.31-.35,6-1.65,8.3-2C11.11,33.56,15.45,33.11,12.33,31.89Z"></path><path class="cls-3" d="M20.89,18.83h4.18v1.42H22.34v1.38h2.73V23H22.34v2h2.73v1.43H20.89Zm-.65,6.26v1.38H16.67V18.83h1.45v6.26ZM6.85,21.46v5H5.39V18.83h1.4l3.27,5v-5h1.46v7.64h-1.4Z"></path><polygon class="cls-4" points="18.12 18.83 16.67 18.83 16.67 26.47 20.24 26.47 20.24 25.09 18.12 25.09 18.12 18.83"></polygon><polygon class="cls-4" points="25.07 25.04 22.34 25.04 22.34 23.03 25.07 23.03 25.07 21.63 22.34 21.63 22.34 20.25 25.07 20.25 25.07 18.83 20.89 18.83 20.89 26.47 25.07 26.47 25.07 25.04"></polygon><polygon class="cls-4" points="11.52 18.83 10.06 18.83 10.06 23.86 6.79 18.83 5.39 18.83 5.39 26.47 6.85 26.47 6.85 21.46 10.12 26.47 11.52 26.47 11.52 18.83"></polygon><rect class="cls-4" x="13.47" y="18.83" width="1.45" height="7.65"></rect><line class="cls-4" x1="14.92" y1="26.47" x2="14.94" y2="26.47"></line><polygon class="cls-4" points="18.91 17.32 19.03 17.23 18.99 17.23 18.91 17.32"></polygon><polygon class="cls-4" points="12.01 17.32 11.94 17.23 11.9 17.23 12.01 17.32"></polygon><polygon class="cls-4" points="23 17.23 27.73 15 21.01 17.23 23 17.23"></polygon><polygon class="cls-4" points="20.48 17.23 27.73 12 19.03 17.23 20.48 17.23"></polygon><polygon class="cls-4" points="9.92 17.23 2.8 13.87 7.91 17.23 9.92 17.23"></polygon><path class="cls-4" d="M19,17.23,27.73,8l-9.47,8.73L26.87,3.39c-.19-.08-9.35,13-9.35,13L22.78,3.26l-6.06,12.8L19.2,3.26,15.89,15.91V3.26L15,15.91,11.68,3.26,14.2,16.05,8.09,3.26,13.4,16.34S4.05,3.27,3.93,3.3l8.74,13.47L2.8,7.68l9.14,9.55Z"></path><polygon class="cls-4" points="11.9 17.23 2.8 10.67 10.44 17.23 11.9 17.23"></polygon></g></g></svg>